<?xml version="1.0" standalone="no"?><!DOCTYPE svg PUBLIC "-//W3C//DTD SVG 1.1//EN" "http://www.w3.org/Graphics/SVG/1.1/DTD/svg11.dtd"><svg t="1707129954086" class="icon" viewBox="0 0 1024 1024" version="1.1" xmlns="http://www.w3.org/2000/svg" p-id="5953" xmlns:xlink="http://www.w3.org/1999/xlink" width="280" height="280"><path d="M110.2 969.5c-22.5 0-40.8-17.9-40.8-40V116.8c0-22 18.3-40 40.8-40l193.4-0.1c16.6 0 30 13.4 30 30s-13.4 30-30 30l-174.2 0.1v772.7h342.3c16.6 0 30 13.4 30 30s-13.4 30-30 30H110.2zM887.3 537.5c-16.6 0-30-13.4-30-30V136.8H678.6c-16.6 0-30-13.4-30-30s13.4-30 30-30l197.9 0.1c22.5 0 40.8 17.9 40.8 40v390.7c0 16.4-13.4 29.9-30 29.9z" p-id="5954" fill="#515151"></path><path d="M611.6 192h-236c-41.4 0-75-33.6-75-75s33.6-75 75-75h236c41.4 0 75 33.6 75 75s-33.7 75-75 75z m-236-90c-8.3 0-15 6.7-15 15s6.7 15 15 15h236c8.3 0 15-6.7 15-15s-6.7-15-15-15h-236zM703.6 414h-404c-16.6 0-30-13.4-30-30s13.4-30 30-30h404c16.6 0 30 13.4 30 30s-13.4 30-30 30zM430.7 651.5h-131c-16.6 0-30-13.4-30-30s13.4-30 30-30h131c16.6 0 30 13.4 30 30s-13.5 30-30 30zM724.8 845.9c-42 0-76.1-34.2-76.1-76.1 0-42 34.2-76.1 76.1-76.1 42 0 76.1 34.2 76.1 76.1 0.1 41.9-34.1 76.1-76.1 76.1z m0-92.3c-8.9 0-16.1 7.2-16.1 16.1 0 8.9 7.2 16.1 16.1 16.1 8.9 0 16.1-7.2 16.1-16.1 0.1-8.9-7.2-16.1-16.1-16.1zM596.6 652.5c-8.3 0-16.5-3.4-22.4-10.1-11-12.4-9.9-31.3 2.5-42.4 22.9-20.4 49.2-35.5 78.2-45.1 15.7-5.2 32.7 3.4 37.9 19.1 5.2 15.7-3.4 32.7-19.1 37.9-21.2 7-40.4 18.1-57.2 33-5.7 5.1-12.8 7.6-19.9 7.6zM535.3 834.5c-14 0-26.6-9.9-29.4-24.2-2.8-14.2-4.2-28.8-4.2-43.3 0-16.5 1.8-33 5.4-48.9 3.6-16.2 19.7-26.3 35.8-22.7 16.2 3.6 26.3 19.7 22.7 35.8-2.6 11.7-3.9 23.7-3.9 35.8 0 10.7 1 21.4 3.1 31.7 3.2 16.3-7.4 32-23.6 35.2-2 0.4-4 0.6-5.9 0.6zM664.6 980.5c-3.1 0-6.3-0.5-9.4-1.5-29.5-9.7-56.2-25.2-79.4-46-12.3-11.1-13.3-30-2.3-42.4s30-13.3 42.4-2.3c17 15.2 36.5 26.6 58.1 33.6 15.7 5.2 24.3 22.1 19.2 37.9-4.3 12.7-16 20.7-28.6 20.7zM787 979.9c-12.5 0-24.2-7.9-28.4-20.3-5.3-15.7 3.1-32.7 18.7-38.1 21.4-7.3 40.8-18.8 57.6-34.1 12.2-11.2 31.2-10.4 42.4 1.9 11.2 12.2 10.4 31.2-1.9 42.4-22.9 21-49.4 36.7-78.8 46.7-3.1 0.9-6.4 1.5-9.6 1.5zM914.4 834.1c-1.9 0-3.8-0.2-5.8-0.6-16.3-3.2-26.9-18.9-23.7-35.2 2-10.3 3-20.8 3-31.4 0-11.2-1.1-22.4-3.4-33.2-3.4-16.2 7.1-32.1 23.3-35.5 16.2-3.4 32.1 7.1 35.5 23.3 3.1 14.8 4.6 30.1 4.6 45.4 0 14.4-1.4 28.8-4.1 42.8-2.7 14.4-15.3 24.4-29.4 24.4zM852.2 651.8c-7 0-14.1-2.5-19.8-7.5-16.4-14.4-35.2-25.2-55.7-32.1-15.7-5.3-24.2-22.3-18.9-38 5.3-15.7 22.3-24.2 38-18.9 28.2 9.4 53.8 24.2 76.3 43.9 12.4 10.9 13.7 29.9 2.7 42.3-6 6.9-14.2 10.3-22.6 10.3z" p-id="5955" fill="#515151"></path><path d="M724.8 642.6c-41.3 0-76.3-19.7-87.2-49.1-5.8-15.5 2.2-32.8 17.7-38.6 15.5-5.8 32.7 2.1 38.5 17.5 1.8 3 13 10.2 31 10.2 18.1 0 29.3-7.1 31-10.2 5.8-15.4 23-23.3 38.5-17.6 15.5 5.7 23.5 23 17.7 38.5-10.8 29.5-45.9 49.3-87.2 49.3z m31-70z m-62 0z m-0.1-0.2zM908.5 755.1c-28.2 0-58-19.8-76.4-51.8-20.1-34.8-21-74.4-2.3-98.6 10.1-13.1 29-15.5 42.1-5.4 13.1 10.1 15.5 28.9 5.4 42-1.8 3-2.3 16.3 6.7 32 9 15.6 20.8 21.8 24.3 21.8 16.3-2.5 31.6 8.6 34.2 24.9 2.6 16.4-8.5 31.8-24.8 34.4-2.9 0.4-6 0.7-9.2 0.7z m-0.2-60z m-31-53.7zM540.6 754.6c-3 0-5.9-0.2-8.8-0.7-16.4-2.5-27.6-17.8-25.1-34.2 2.5-16.3 17.7-27.6 34.1-25.1 3.5 0 15.3-6.2 24.3-21.8 9.1-15.7 8.5-29.1 6.7-32-9.8-13.3-7-32.1 6.4-41.9 13.3-9.8 32.1-7 42 6.4 18.1 24.6 16.9 62.9-3.1 97.6-18.4 31.8-48.3 51.7-76.5 51.7zM785.5 980.7c-13.8 0-26.2-9.6-29.3-23.5-2-3.1-13.2-10-30.9-10-17.8 0-29 6.9-31 10-4 15.8-20 25.6-36 21.8-16.1-3.8-26.1-19.9-22.3-36.1 7.7-32.9 44.4-55.8 89.3-55.8 20.2 0 39.2 4.7 55 13.5 18.8 10.5 31.1 26.2 34.7 44.2 3.2 16.2-7.3 32-23.6 35.3-2 0.4-4 0.6-5.9 0.6z m-29.1-23.3z m-62.2 0z m61.9-0.8zM855.2 938.2c-8.3 0-16.5-3.4-22.4-10.1-21.4-24-21.5-64.9-0.2-101.6 21.1-36.6 56.4-56.9 87.7-50.7 16.3 3.2 26.8 19 23.6 35.3-3.2 16.2-18.9 26.7-35 23.6-3.5 0-15.3 6.2-24.3 21.8-9 15.6-8.5 28.8-6.7 31.9 10.8 12.4 9.7 31.2-2.6 42.2-5.9 5.1-13 7.6-20.1 7.6z m22.4-49.9z m31.3-53.6zM594.3 939.4c-7.4 0-14.9-2.7-20.7-8.3-11.9-11.3-12.5-30.2-1.3-42.2 1.7-3.2 2.2-16.4-6.8-31.9-9-15.6-20.7-21.8-24.3-21.8-16.1 3.3-31.9-7-35.3-23.1-3.5-16.2 6.9-32.1 23.1-35.6 31.6-6.8 67.2 13.6 88.5 50.5 9.7 16.8 15.1 34.8 15.7 52.2 0.7 20.3-5.4 38.4-17.3 50.8-5.7 6.2-13.7 9.4-21.6 9.4z m-52.7-104.3z" p-id="5956" fill="#515151"></path></svg>