<?xml version="1.0" standalone="no"?><!DOCTYPE svg PUBLIC "-//W3C//DTD SVG 1.1//EN" "http://www.w3.org/Graphics/SVG/1.1/DTD/svg11.dtd"><svg t="1726569656006" class="icon" viewBox="0 0 1024 1024" version="1.1" xmlns="http://www.w3.org/2000/svg" p-id="2447" xmlns:xlink="http://www.w3.org/1999/xlink" width="280" height="280"><path d="M533.521017 1024h-43.042034A330.322581 330.322581 0 0 1 160.156403 693.677419V260.254154A260.254154 260.254154 0 0 1 420.410557 0h183.178886a260.254154 260.254154 0 0 1 260.254154 260.254154v433.423265a330.322581 330.322581 0 0 1-330.32258 330.322581zM420.410557 80.078201c-99.096774 0-180.175953 81.079179-180.175953 180.175953v433.423265c0 138.134897 112.109482 250.244379 250.244379 250.24438h43.042034c138.134897 0 250.244379-112.109482 250.244379-250.24438V260.254154c0-99.096774-81.079179-180.175953-180.175953-180.175953z" fill="" p-id="2448"></path><path d="M521.509286 483.472141h-19.018572a100.097752 100.097752 0 0 1-100.097752-100.097752V236.230694a100.097752 100.097752 0 0 1 100.097752-100.097752h19.018572a100.097752 100.097752 0 0 1 100.097752 100.097752v147.143695a100.097752 100.097752 0 0 1-100.097752 100.097752z m-19.018572-267.260997a20.01955 20.01955 0 0 0-20.019551 20.01955v147.143695a20.01955 20.01955 0 0 0 20.019551 20.01955h19.018572a20.01955 20.01955 0 0 0 20.019551-20.01955V236.230694a20.01955 20.01955 0 0 0-20.019551-20.01955z" fill="" p-id="2449"></path><path d="M512.500489 201.196481a40.039101 40.039101 0 0 1-40.039101-40.039101V69.067449a40.039101 40.039101 0 0 1 80.078201 0v92.089931a40.039101 40.039101 0 0 1-40.0391 40.039101zM424.414467 414.404692H215.210166a40.039101 40.039101 0 0 1 0-80.078201h209.204301a40.039101 40.039101 0 0 1 0 80.078201zM806.787879 414.404692H597.583578a40.039101 40.039101 0 0 1 0-80.078201h209.204301a40.039101 40.039101 0 0 1 0 80.078201z" fill="" p-id="2450"></path></svg>