<?xml version="1.0" standalone="no"?><!DOCTYPE svg PUBLIC "-//W3C//DTD SVG 1.1//EN" "http://www.w3.org/Graphics/SVG/1.1/DTD/svg11.dtd"><svg t="1707719412905" class="icon" viewBox="0 0 1024 1024" version="1.1" xmlns="http://www.w3.org/2000/svg" p-id="23648" xmlns:xlink="http://www.w3.org/1999/xlink" width="300" height="300"><path d="M521.8816 640.512a143.325867 143.325867 0 0 1-89.890133 31.488 144.008533 144.008533 0 1 1 112.503466-54.1184l171.127467 171.127467-22.6304 22.6304L521.864533 640.512zM512 288l-64-128H96.085333c-35.396267 0-64.085333 28.4672-64.085333 63.709867v576.5632a63.8976 63.8976 0 0 0 63.778133 63.709866h800.426667a63.7952 63.7952 0 0 0 63.778133-63.8464V351.829333a64 64 0 0 0-64.187733-63.8464H511.982933zM432.008533 640a112.008533 112.008533 0 1 0 0-224.017067 112.008533 112.008533 0 0 0 0 224.017067z" p-id="23649" fill="#707070"></path></svg>