<?xml version="1.0" standalone="no"?><!DOCTYPE svg PUBLIC "-//W3C//DTD SVG 1.1//EN" "http://www.w3.org/Graphics/SVG/1.1/DTD/svg11.dtd"><svg t="1736822283211" class="icon" viewBox="0 0 1024 1024" version="1.1" xmlns="http://www.w3.org/2000/svg" p-id="11291" xmlns:xlink="http://www.w3.org/1999/xlink" width="640" height="640"><path d="M694.6 234.3H329.4c-18.9 0-34.2 15.3-34.2 34.2s15.3 34.3 34.2 34.3h365.2c18.9 0 34.2-15.3 34.2-34.3 0-18.9-15.3-34.2-34.2-34.2z m0 136.9H329.4c-18.9 0-34.2 15.3-34.2 34.2s15.3 34.2 34.2 34.2h365.2c18.9 0 34.2-15.3 34.2-34.2s-15.3-34.2-34.2-34.2zM799.5 64h-575c-47.1 0-85.2 38.1-85.2 85.2v725.6c0 47 38.1 85.2 85.2 85.2h575c47 0 85.2-38.2 85.2-85.2V149.2c0-47.1-38.1-85.2-85.2-85.2z m0 768.2c0 23.5-19.1 42.5-42.6 42.5H267.1c-23.5 0-42.6-19.1-42.6-42.5V191.8c0-23.6 19.1-42.6 42.6-42.6h489.8c23.5 0 42.6 19.1 42.6 42.6v640.4z m-104.9-324H329.4c-18.9 0-34.2 15.3-34.2 34.2s15.3 34.3 34.2 34.3h365.2c18.9 0 34.2-15.3 34.2-34.3 0-18.9-15.3-34.2-34.2-34.2z" fill="#515151" p-id="11292"></path></svg>