<?xml version="1.0" standalone="no"?><!DOCTYPE svg PUBLIC "-//W3C//DTD SVG 1.1//EN" "http://www.w3.org/Graphics/SVG/1.1/DTD/svg11.dtd"><svg t="1707108811333" class="icon" viewBox="0 0 1024 1024" version="1.1" xmlns="http://www.w3.org/2000/svg" p-id="32836" xmlns:xlink="http://www.w3.org/1999/xlink" width="200" height="200"><path d="M453.65 367.77l-85.22 84.94c-35.3 35.18-92.53 35.18-127.83 0l-85.22-84.94c-35.3-35.18-35.3-92.22 0-127.41l85.22-84.94c35.3-35.18 92.53-35.18 127.83 0l85.22 84.94c35.3 35.18 35.3 92.23 0 127.41z" p-id="32837" fill="#515151"></path><path d="M304.52 509.03c-30.82 0-61.63-11.69-85.09-35.07l-85.22-84.94c-22.76-22.69-35.3-52.86-35.3-84.95 0-32.1 12.54-62.27 35.3-84.95l85.22-84.94c46.92-46.76 123.26-46.76 170.18 0l85.22 84.94c22.76 22.69 35.3 52.85 35.3 84.95s-12.54 62.27-35.3 84.95l-85.22 84.94c-23.46 23.38-54.28 35.07-85.09 35.07z m0-349.97c-15.48 0-30.95 5.87-42.74 17.61l-85.22 84.94c-11.38 11.35-17.65 26.42-17.65 42.45s6.27 31.11 17.65 42.45l85.22 84.94c23.56 23.49 61.91 23.49 85.47 0l85.22-84.94c11.38-11.35 17.65-26.42 17.65-42.45s-6.27-31.11-17.65-42.45l-85.22-84.94c-11.78-11.74-27.26-17.61-42.73-17.61zM884.09 489.82H590.71c-24.26 0-44-19.74-44-44V153.5c0-24.26 19.74-44 44-44h293.38c24.26 0 44 19.74 44 44v292.32c0 24.26-19.73 44-44 44z m-277.38-60h261.38V169.5H606.71v260.32zM451.21 928.09H157.83c-24.26 0-44-19.74-44-44V581.76c0-24.26 19.74-44 44-44h293.38c24.26 0 44 19.74 44 44v302.33c0 24.26-19.74 44-44 44z m-277.38-60h261.38V597.76H173.83v270.33zM884.09 923.69H590.71c-24.26 0-44-19.74-44-44V577.36c0-24.26 19.74-44 44-44h293.38c24.26 0 44 19.74 44 44v302.33c0 24.26-19.73 44-44 44z m-277.38-60h261.38V593.36H606.71v270.33z" p-id="32838" fill="#515151"></path></svg>