<?xml version="1.0" standalone="no"?><!DOCTYPE svg PUBLIC "-//W3C//DTD SVG 1.1//EN" "http://www.w3.org/Graphics/SVG/1.1/DTD/svg11.dtd"><svg t="1707132269757" class="icon" viewBox="0 0 1024 1024" version="1.1" xmlns="http://www.w3.org/2000/svg" p-id="25910" xmlns:xlink="http://www.w3.org/1999/xlink" width="280" height="280"><path d="M736 896h-448a32 32 0 0 0 0 64h448a32 32 0 0 0 0-64zM832 128H192a128 128 0 0 0-128 128v448a128 128 0 0 0 128 128h640a128 128 0 0 0 128-128V256a128 128 0 0 0-128-128zM384 304.64a153.6 153.6 0 0 1 166.4 10.24l-46.08 144.64a140.16 140.16 0 0 0-81.92-28.8A217.6 217.6 0 0 0 337.92 448z m-92.8 320l42.24-145.28a152.96 152.96 0 0 1 166.4 8.96l-46.08 144.64a152.32 152.32 0 0 0-165.76-10.24z m355.2 32a152.32 152.32 0 0 1-166.4-9.6l42.88-144.64A161.92 161.92 0 0 0 684.8 512z m49.92-170.24a150.4 150.4 0 0 1-166.4-8.96l39.68-147.84a153.6 153.6 0 0 0 166.4 9.6z" p-id="25911" fill="#1296db"></path></svg>