<?xml version="1.0" standalone="no"?><!DOCTYPE svg PUBLIC "-//W3C//DTD SVG 1.1//EN" "http://www.w3.org/Graphics/SVG/1.1/DTD/svg11.dtd"><svg t="1707132008054" class="icon" viewBox="0 0 1024 1024" version="1.1" xmlns="http://www.w3.org/2000/svg" p-id="18258" xmlns:xlink="http://www.w3.org/1999/xlink" width="280" height="280"><path d="M804.576 0C925.76 0 1024 98.24 1024 219.424v585.152C1024 925.76 925.76 1024 804.576 1024H219.424C98.24 1024 0 925.76 0 804.576V219.424C0 98.24 98.24 0 219.424 0h585.152zM512 758.4a22.343 22.343 0 0 0-22.4 22.4V848c0 12.416 9.984 22.4 22.4 22.4 12.416 0 22.4-9.984 22.4-22.4v-67.2a22.4 22.4 0 0 0-22.4-22.4z m174.24-72.16a22.432 22.432 0 0 0 0 31.68l47.52 47.504a22.432 22.432 0 0 0 31.664 0 22.432 22.432 0 0 0 0-31.68l-47.52-47.488a22.432 22.432 0 0 0-31.648 0z m-366.672-13.216l-47.04 47.04c-8.64 8.64-8.64 22.768 0 31.408s22.752 8.64 31.392 0l47.04-47.04c8.64-8.64 8.64-22.768 0-31.408a22.256 22.256 0 0 0-31.392 0zM512 310.304c-111.456 0-201.776 90.32-201.776 201.792 0 111.456 90.32 201.76 201.776 201.76 111.456 0 201.776-90.304 201.776-201.76 0-111.472-90.32-201.792-201.776-201.792zM243.2 489.6H176a22.4 22.4 0 0 0 0 44.8h67.2c12.416 0 22.4-9.984 22.4-22.4 0-12.32-10.08-22.4-22.4-22.4z m604.8 0h-67.2a22.343 22.343 0 0 0-22.4 22.4c0 12.416 9.984 22.4 22.4 22.4H848a22.4 22.4 0 0 0 0-44.8zM258.576 258.576a22.432 22.432 0 0 0 0 31.68l47.52 47.488a22.432 22.432 0 0 0 31.648 0 22.432 22.432 0 0 0 0-31.664l-47.488-47.504a22.432 22.432 0 0 0-31.68 0z m484.624-9.168l-47.04 47.04c-8.64 8.64-8.64 22.768 0 31.408 8.624 8.72 22.752 8.72 31.376 0l47.056-47.04c8.64-8.64 8.64-22.768 0-31.408a22.256 22.256 0 0 0-31.392 0zM512 153.6a22.343 22.343 0 0 0-22.4 22.4v67.2a22.4 22.4 0 0 0 44.8 0V176c0-12.416-9.984-22.4-22.4-22.4z" fill="#EF176B" p-id="18259"></path></svg>