<?xml version="1.0" standalone="no"?><!DOCTYPE svg PUBLIC "-//W3C//DTD SVG 1.1//EN" "http://www.w3.org/Graphics/SVG/1.1/DTD/svg11.dtd"><svg t="1708165106965" class="icon" viewBox="0 0 1024 1024" version="1.1" xmlns="http://www.w3.org/2000/svg" p-id="8882" xmlns:xlink="http://www.w3.org/1999/xlink" width="200" height="200"><path d="M512 884.736H197.973333c-32.768 0-59.392-26.624-59.392-59.392V197.973333c0-32.768 26.624-59.392 59.392-59.392h628.053334c32.768 0 59.392 26.624 59.392 59.392v314.026667c0 11.605333-8.874667 20.48-20.48 20.48s-20.48-8.874667-20.48-20.48V197.973333c0-9.557333-8.874667-18.432-18.432-18.432H197.973333c-9.557333 0-18.432 8.874667-18.432 18.432v627.370667c0 9.557333 8.874667 18.432 18.432 18.432h314.026667c11.605333 0 20.48 8.874667 20.48 20.48s-8.874667 20.48-20.48 20.48z" fill="#8a8a8a" p-id="8883"></path><path d="M864.256 408.917333H159.744c-11.605333 0-20.48-8.874667-20.48-20.48s8.874667-20.48 20.48-20.48h704.512c11.605333 0 20.48 8.874667 20.48 20.48s-8.874667 20.48-20.48 20.48zM512 640.341333H159.744c-11.605333 0-20.48-8.874667-20.48-20.48s8.874667-20.48 20.48-20.48H512c11.605333 0 20.48 8.874667 20.48 20.48s-8.874667 20.48-20.48 20.48zM864.256 708.608H512c-11.605333 0-20.48-8.874667-20.48-20.48s8.874667-20.48 20.48-20.48h352.256c11.605333 0 20.48 8.874667 20.48 20.48s-8.874667 20.48-20.48 20.48z" fill="#8a8a8a" p-id="8884"></path><path d="M688.128 884.736c-11.605333 0-20.48-8.874667-20.48-20.48V512c0-11.605333 8.874667-20.48 20.48-20.48s20.48 8.874667 20.48 20.48v352.256c0 11.605333-8.874667 20.48-20.48 20.48zM261.461333 306.517333c-16.384 0-29.354667-12.970667-29.354666-29.354666s12.970667-29.354667 29.354666-29.354667 29.354667 12.970667 29.354667 29.354667-12.970667 29.354667-29.354667 29.354666z m0-40.96c-6.144 0-11.605333 5.461333-11.605333 11.605334 0 6.144 5.461333 11.605333 11.605333 11.605333 6.144 0 11.605333-5.461333 11.605334-11.605333 0-6.144-5.461333-11.605333-11.605334-11.605334zM261.461333 541.354667c-16.384 0-29.354667-12.970667-29.354666-29.354667s12.970667-29.354667 29.354666-29.354667 29.354667 12.970667 29.354667 29.354667-12.970667 29.354667-29.354667 29.354667z m0-40.96c-6.144 0-11.605333 5.461333-11.605333 11.605333s5.461333 11.605333 11.605333 11.605333c6.144 0 11.605333-5.461333 11.605334-11.605333s-5.461333-11.605333-11.605334-11.605333zM261.461333 783.701333c-16.384 0-29.354667-12.970667-29.354666-29.354666s12.970667-29.354667 29.354666-29.354667 29.354667 12.970667 29.354667 29.354667-12.970667 29.354667-29.354667 29.354666z m0-40.96c-6.144 0-11.605333 5.461333-11.605333 11.605334s5.461333 11.605333 11.605333 11.605333c6.144 0 11.605333-5.461333 11.605334-11.605333s-5.461333-11.605333-11.605334-11.605334z" fill="#8a8a8a" p-id="8885"></path></svg>