<?xml version="1.0" standalone="no"?><!DOCTYPE svg PUBLIC "-//W3C//DTD SVG 1.1//EN" "http://www.w3.org/Graphics/SVG/1.1/DTD/svg11.dtd"><svg t="1708162645951" class="icon" viewBox="0 0 1024 1024" version="1.1" xmlns="http://www.w3.org/2000/svg" p-id="1465" xmlns:xlink="http://www.w3.org/1999/xlink" width="200" height="200"><path d="M439.6032 512l-108.6208-108.6208a51.2 51.2 0 0 1 72.3968-72.3968L512 439.6032l108.6208-108.6208a51.2 51.2 0 0 1 72.3968 72.3968L584.3968 512l108.6208 108.6208a51.2 51.2 0 0 1-72.3968 72.3968L512 584.3968l-108.6208 108.6208a51.2 51.2 0 0 1-72.3968-72.3968L439.6032 512zM512 1024C229.2224 1024 0 794.7776 0 512S229.2224 0 512 0s512 229.2224 512 512-229.2224 512-512 512z m0-102.4c226.2272 0 409.6-183.3728 409.6-409.6S738.2272 102.4 512 102.4 102.4 285.7728 102.4 512s183.3728 409.6 409.6 409.6z" fill="#8a8a8a" p-id="1466"></path></svg>