<?xml version="1.0" standalone="no"?><!DOCTYPE svg PUBLIC "-//W3C//DTD SVG 1.1//EN" "http://www.w3.org/Graphics/SVG/1.1/DTD/svg11.dtd"><svg t="1707713603034" class="icon" viewBox="0 0 1024 1024" version="1.1" xmlns="http://www.w3.org/2000/svg" p-id="7866" width="300" height="300" xmlns:xlink="http://www.w3.org/1999/xlink"><path d="M512.104171 318.76297l-14.792269-16.875686-1.458392-1.666735-1.458393-1.666734c-14.167243-16.042319-35.834791-40.834995-64.37762-61.252493-27.292777-19.58413-61.460834-35.418108-101.670803-35.418107-25.626043 0-50.835402 5.000203-73.961343 14.792268-23.334283 9.792065-45.001831 24.16765-63.752594 42.50173-18.542421 18.334079-33.33469 39.584944-43.75178 62.919226s-16.667345 48.3353-18.125738 74.378027c-1.458393 26.042726 1.250051 50.418718 8.125331 74.169685 7.083622 24.16765 18.542421 47.918616 35.209766 73.127975 13.125534 20.000814 36.459817 45.835198 63.33591 72.711292 34.168057 33.959715 74.169685 69.586165 107.921058 97.295626 35.001424 28.959512 76.461445 61.252492 111.879553 83.336724 24.584334 15.208952 45.210173 25.417701 57.293998 25.626043l-0.416684-503.978841z" fill="#EF5350" p-id="7867"></path><path d="M895.661445 396.266124c-1.458393-25.834385-7.500305-51.043744-18.125738-74.378026-10.417091-23.334283-25.209359-44.585148-43.75178-62.919227-18.750763-18.542421-40.418311-32.918006-63.752594-42.50173-23.334283-9.583723-48.3353-14.792269-73.961343-14.792268-37.709868 0-70.002848 14.792269-96.6706 33.543031-27.917803 19.58413-50.002035 43.75178-65.627671 60.627467-7.708647 8.333672 5.625229-6.041913-2.916785 3.125127-0.625025 0.625025-1.458393 1.666734-2.916785 3.125128l-15.417294 16.667344-0.208342 0.208342-0.208342-0.416683v503.770498h0.416684c14.375585 0 40.626653-13.958901 70.836215-33.959715 32.709664-21.667548 68.127772-49.377009 98.754019-74.79471 33.126348-27.501119 72.711292-62.919227 107.08769-97.087284 26.876094-26.876094 50.210376-52.91882 63.544253-73.127975 11.042116-16.875687 22.917599-37.293184 31.459613-61.669176 8.125331-23.959308 13.333876-52.293795 11.4588-85.420143z" fill="#D32F2F" p-id="7868"></path></svg>