<?xml version="1.0" standalone="no"?><!DOCTYPE svg PUBLIC "-//W3C//DTD SVG 1.1//EN" "http://www.w3.org/Graphics/SVG/1.1/DTD/svg11.dtd"><svg t="1706936867583" class="icon" viewBox="0 0 1024 1024" version="1.1" xmlns="http://www.w3.org/2000/svg" p-id="2383" xmlns:xlink="http://www.w3.org/1999/xlink" width="200" height="200"><path d="M1024 213.333333V149.333333C1024 66.986667 957.013333 0 874.666667 0h-725.333334C66.986667 0 0 66.986667 0 149.333333V213.333333h1024zM320.853333 85.333333h0.426667a21.333333 21.333333 0 0 1 0 42.666667c-11.776 0-21.546667-9.557333-21.546667-21.333333s9.344-21.333333 21.12-21.333334z m-85.333333 0h0.426667a21.333333 21.333333 0 0 1 0 42.666667c-11.776 0-21.546667-9.557333-21.546667-21.333333s9.344-21.333333 21.12-21.333334z m-85.333333 0h0.426666a21.333333 21.333333 0 0 1 0 42.666667c-11.776 0-21.546667-9.557333-21.546666-21.333333s9.344-21.333333 21.12-21.333334zM0 256v618.666667C0 957.013333 66.986667 1024 149.333333 1024h725.333334c82.346667 0 149.333333-66.986667 149.333333-149.333333V256H0z m853.333333 192a21.333333 21.333333 0 0 1-21.333333 21.333333h-85.333333a21.162667 21.162667 0 0 1-15.829334-7.296L298.666667 737.066667V789.333333a21.333333 21.333333 0 0 1-21.333334 21.333334h-85.333333a21.333333 21.333333 0 0 1-21.333333-21.333334v-85.333333a21.333333 21.333333 0 0 1 21.333333-21.333333h85.333333c6.357333 0 11.904 2.901333 15.829334 7.296L725.333333 414.933333V362.666667a21.333333 21.333333 0 0 1 21.333334-21.333334h85.333333a21.333333 21.333333 0 0 1 21.333333 21.333334v85.333333z" p-id="2384"></path><path d="M213.333333 725.333333h42.666667v42.666667H213.333333zM768 384h42.666667v42.666667h-42.666667z" p-id="2385"></path></svg>