<?xml version="1.0"?>
<svg width="1024" height="1024" xmlns="http://www.w3.org/2000/svg" xmlns:svg="http://www.w3.org/2000/svg" class="icon" version="1.1">
 <g class="layer">
  <title>Layer 1</title>
  <path d="m1005.1,0l-986.2,0c-11.02,0 -18.9,7.88 -18.9,18.9l0,986.2c0,11.02 7.88,18.9 18.9,18.9l986.2,0c11.02,0 18.9,-7.88 18.9,-18.9l0,-986.2c0,-11.02 -7.88,-18.9 -18.9,-18.9zm-266.24,493.1l-207.96,0l0,-207.96l207.96,0l0,207.96zm39.38,-207.96l207.95,0l0,207.96l-207.95,0l0,-207.96zm-247.34,-39.38l0,-207.95l207.96,0l0,207.95l-207.96,0zm-37.8,0l-207.96,0l0,-207.95l207.96,0l0,207.95zm0,39.38l0,207.96l-207.96,0l0,-207.96l207.96,0zm-247.34,207.96l-207.95,0l0,-207.96l207.95,0l0,207.96zm-207.95,37.8l207.95,0l0,207.96l-207.95,0l0,-207.96zm247.33,0l207.96,0l0,207.96l-207.96,0l0,-207.96zm207.96,247.34l0,207.95l-207.96,0l0,-207.95l207.96,0zm37.8,0l207.96,0l0,207.95l-207.96,0l0,-207.95zm0,-39.38l0,-207.96l207.96,0l0,207.96l-207.96,0zm247.34,-207.96l207.95,0l0,207.96l-207.95,0l0,-207.96zm207.95,-285.14l-207.95,0l0,-207.95l207.95,0l0,207.95zm-740.43,-207.95l0,207.95l-207.95,0l0,-207.95l207.95,0zm-207.95,740.43l207.95,0l0,207.95l-207.95,0l0,-207.95zm740.43,207.95l0,-207.95l207.95,0l0,207.95l-207.95,0z" fill="#515151" id="svg_1"/>
  <path d="m284.75,284.61c0,0 0,209.17 0,209.17c0,0 209.17,0 209.17,0c0,0 -0.42,-210.42 -0.58,-210.44c-0.17,-0.03 -208.58,1.28 -208.58,1.28z" fill="#ff0000" id="svg_2" stroke="#000000"/>
 </g>
</svg>